<svg width="24" height="24" viewBox="0 0 24 24" fill="none" xmlns="http://www.w3.org/2000/svg">
<g clip-path="url(#clip0)">
<path d="M22.1799 15.0208C21.8494 15.0208 21.5814 15.2888 21.5814 15.6193V20.9334C21.5803 21.9247 20.7772 22.728 19.7859 22.7289H2.99252C2.00125 22.728 1.19818 21.9247 1.19701 20.9334V5.337C1.19818 4.34596 2.00125 3.54266 2.99252 3.54149H8.30658C8.63716 3.54149 8.90508 3.27357 8.90508 2.94299C8.90508 2.61264 8.63716 2.34448 8.30658 2.34448H2.99252C1.34055 2.34635 0.00187032 3.68504 0 5.337V20.9336C0.00187032 22.5856 1.34055 23.9243 2.99252 23.9262H19.7859C21.4379 23.9243 22.7766 22.5856 22.7784 20.9336V15.6193C22.7784 15.2888 22.5105 15.0208 22.1799 15.0208Z" fill="#3F8CFF"/>
<path d="M22.5413 0.804493C21.4895 -0.247331 19.7842 -0.247331 18.7324 0.804493L8.05468 11.4822C7.98151 11.5554 7.92867 11.6461 7.90108 11.7457L6.49694 16.8149C6.43919 17.0228 6.49787 17.2453 6.6503 17.398C6.80297 17.5504 7.02554 17.6091 7.23338 17.5516L12.3027 16.1472C12.4023 16.1196 12.493 16.0668 12.5661 15.9936L23.2436 5.31572C24.2938 4.26319 24.2938 2.55932 23.2436 1.5068L22.5413 0.804493ZM9.35877 11.8712L18.0976 3.13211L20.916 5.95046L12.1769 14.6895L9.35877 11.8712ZM8.7958 13.0009L11.0474 15.2527L7.93288 16.1157L8.7958 13.0009ZM22.3973 4.46939L21.7625 5.10413L18.9439 2.28556L19.5789 1.65081C20.1632 1.06657 21.1105 1.06657 21.6947 1.65081L22.3973 2.35312C22.9806 2.93807 22.9806 3.88468 22.3973 4.46939Z" fill="#3F8CFF"/>
</g>
<defs>
<clipPath id="clip0">
<rect width="24" height="24" fill="white"/>
</clipPath>
</defs>
</svg>
