<svg width="24" height="24" viewBox="0 0 24 24" fill="none" xmlns="http://www.w3.org/2000/svg">
<path d="M22.8 3.6H17.6V2C17.5986 0.895898 16.7041 0.00136719 15.6 0H8.4C7.2959 0.00136719 6.40137 0.895898 6.4 2V3.6H1.2C0.537305 3.6 0 4.1373 0 4.8V13.7039C0.00253906 14.2113 0.322266 14.6627 0.8 14.8332V20.4C0.8 21.0627 1.3373 21.6 2 21.6H22C22.6627 21.6 23.2 21.0627 23.2 20.4V14.8336C23.6777 14.6629 23.9977 14.2113 24 13.7039V4.8C24 4.1373 23.4627 3.6 22.8 3.6ZM7.2 2C7.2 1.3373 7.7373 0.8 8.4 0.8H15.6C16.2627 0.8 16.8 1.3373 16.8 2V3.6H16V2C16 1.7791 15.8209 1.6 15.6 1.6H8.4C8.1791 1.6 8 1.7791 8 2V3.6H7.2V2ZM15.2 3.6H8.8V2.4H15.2V3.6ZM22.4 20.4C22.4 20.6209 22.2209 20.8 22 20.8H2C1.7791 20.8 1.6 20.6209 1.6 20.4V14.9707L10.4 16.1844V17.2C10.4 17.8627 10.9373 18.4 11.6 18.4H12.4C13.0627 18.4 13.6 17.8627 13.6 17.2V16.1844L22.4 14.9707V20.4ZM12.8 17.2C12.8 17.4209 12.6209 17.6 12.4 17.6H11.6C11.3791 17.6 11.2 17.4209 11.2 17.2V14.8C11.2 14.5791 11.3791 14.4 11.6 14.4H12.4C12.6209 14.4 12.8 14.5791 12.8 14.8V17.2ZM23.2 13.7039C23.2002 13.9033 23.0535 14.0725 22.8561 14.1004L22.7451 14.1156L13.6 15.3768V14.8C13.6 14.1373 13.0627 13.6 12.4 13.6H11.6C10.9373 13.6 10.4 14.1373 10.4 14.8V15.3768L1.14434 14.1004C0.946875 14.0727 0.799805 13.9035 0.8 13.7039V4.8C0.8 4.5791 0.979102 4.4 1.2 4.4H22.8C23.0209 4.4 23.2 4.5791 23.2 4.8V13.7039Z" fill="#828282"/>
</svg>
