<svg width="24" height="24" viewBox="0 0 24 24" fill="none" xmlns="http://www.w3.org/2000/svg">
<g clip-path="url(#clip0)">
<path d="M15.3742 2.38379H8.07136C7.87715 2.38379 7.7198 2.54115 7.7198 2.73535C7.7198 2.92955 7.87715 3.08691 8.07136 3.08691H15.3742C15.5684 3.08691 15.7258 2.92955 15.7258 2.73535C15.7258 2.54115 15.5684 2.38379 15.3742 2.38379Z" fill="#828282"/>
<path d="M15.3742 4.4417H8.07136C7.87715 4.4417 7.7198 4.59906 7.7198 4.79326C7.7198 4.98746 7.87715 5.14482 8.07136 5.14482H15.3742C15.5684 5.14482 15.7258 4.98746 15.7258 4.79326C15.7258 4.59906 15.5684 4.4417 15.3742 4.4417Z" fill="#828282"/>
<path d="M22.1027 12.1585H20.0156V11.177C20.0156 9.88346 18.9632 8.83112 17.6697 8.83112H13.7172C12.4236 8.83112 11.3712 9.88346 11.3712 11.177V12.1585H9.28411C8.23439 12.1585 7.38684 13.0096 7.38684 14.0558V22.0959C7.38684 23.142 8.23795 23.9932 9.28411 23.9932H22.1028C23.1489 23.9932 24 23.1421 24 22.0959V20.5725C24 20.3783 23.8427 20.2209 23.6485 20.2209C23.4543 20.2209 23.2969 20.3783 23.2969 20.5725V22.0959C23.2969 22.7543 22.7612 23.29 22.1028 23.29H9.28411C8.62565 23.29 8.08997 22.7543 8.08997 22.0959V17.1132C8.64398 17.7963 9.47742 18.244 10.4146 18.2806V18.8174C10.4146 19.5258 10.991 20.1022 11.6994 20.1022C12.4079 20.1022 12.9842 19.5258 12.9842 18.8174V18.2831H18.4026V18.8174C18.4026 19.5258 18.979 20.1022 19.6874 20.1022C20.3958 20.1022 20.9722 19.5258 20.9722 18.8174V18.2806C21.9094 18.244 22.7429 17.7963 23.2969 17.1132V18.9289C23.2969 19.1231 23.4542 19.2804 23.6484 19.2804C23.8426 19.2804 24 19.1231 24 18.9289V14.0557C24 13.0099 23.1528 12.1585 22.1027 12.1585ZM12.0743 11.177C12.0743 10.2712 12.8113 9.53424 13.7172 9.53424H17.6697C18.5755 9.53424 19.3125 10.2712 19.3125 11.177V12.1585H18.5804V11.177C18.5804 10.6749 18.1718 10.2664 17.6697 10.2664H13.7172C13.215 10.2664 12.8065 10.6749 12.8065 11.177V12.1585H12.0743V11.177ZM13.5097 12.1585V11.177C13.5097 11.0626 13.6027 10.9696 13.7172 10.9696H17.6697C17.7841 10.9696 17.8772 11.0626 17.8772 11.177V12.1585H13.5097ZM12.2811 18.8174C12.2811 19.1382 12.0202 19.3991 11.6994 19.3991C11.3787 19.3991 11.1178 19.1382 11.1178 18.8174V17.5606C11.1178 17.2399 11.3787 16.979 11.6994 16.979C12.0202 16.979 12.2811 17.2399 12.2811 17.5606V18.8174ZM20.2691 18.8174C20.2691 19.1382 20.0082 19.3991 19.6874 19.3991C19.3666 19.3991 19.1057 19.1382 19.1057 18.8174V17.9351C19.1057 17.9339 19.1058 17.9327 19.1058 17.9315C19.1058 17.9304 19.1057 17.9291 19.1057 17.9279V17.5607C19.1057 17.2399 19.3666 16.979 19.6874 16.979C20.0082 16.979 20.2691 17.2399 20.2691 17.5607V18.8174ZM20.9722 17.5768V17.5607C20.9722 16.8523 20.3958 16.2759 19.6874 16.2759C18.979 16.2759 18.4026 16.8523 18.4026 17.5607V17.58H12.9842V17.5607C12.9842 16.8523 12.4079 16.2759 11.6994 16.2759C10.991 16.2759 10.4146 16.8523 10.4146 17.5607V17.5768C9.12178 17.5117 8.08997 16.4394 8.08997 15.1307V14.0557C8.08997 13.3963 8.62439 12.8616 9.28411 12.8616H22.1028C22.7608 12.8616 23.2969 13.3946 23.2969 14.0557V15.1307C23.2969 16.4394 22.2651 17.5117 20.9722 17.5768Z" fill="#828282"/>
<path d="M6.93361 23.29H1.73855C1.16761 23.29 0.703125 22.8256 0.703125 22.2546V5.36776C0.703125 5.29187 0.711234 5.21724 0.727078 5.14482H3.92653C4.59455 5.14482 5.13802 4.60135 5.13802 3.93338V0.733929C5.21044 0.718132 5.28506 0.709976 5.36095 0.709976H17.2807C17.8516 0.709976 18.3161 1.17446 18.3161 1.7454V7.77737C18.3161 7.97157 18.4735 8.12893 18.6677 8.12893C18.8619 8.12893 19.0192 7.97157 19.0192 7.77737V1.7454C19.0192 0.786757 18.2393 0.0068512 17.2807 0.0068512H5.36091C4.89652 0.0068512 4.45988 0.187648 4.13152 0.516007L0.509156 4.13841C0.180797 4.46677 0 4.90337 0 5.36776V22.2546C0 23.2133 0.779906 23.9932 1.73855 23.9932H6.93361C7.12781 23.9932 7.28517 23.8358 7.28517 23.6416C7.28517 23.4474 7.12781 23.29 6.93361 23.29ZM4.43484 1.20718V3.93338C4.43484 4.21365 4.2068 4.44169 3.92648 4.44169H1.20033L4.43484 1.20718Z" fill="#828282"/>
</g>
<defs>
<clipPath id="clip0">
<rect width="24" height="24" fill="white"/>
</clipPath>
</defs>
</svg>
