<svg width="24" height="24" viewBox="0 0 24 24" fill="none" xmlns="http://www.w3.org/2000/svg">
<g clip-path="url(#clip0)">
<path d="M22.1799 15.0206C21.8494 15.0206 21.5814 15.2885 21.5814 15.6191V20.9332C21.5803 21.9244 20.7772 22.7277 19.7859 22.7287H2.99252C2.00125 22.7277 1.19818 21.9244 1.19701 20.9332V5.33676C1.19818 4.34572 2.00125 3.54241 2.99252 3.54125H8.30658C8.63716 3.54125 8.90508 3.27332 8.90508 2.94274C8.90508 2.6124 8.63716 2.34424 8.30658 2.34424H2.99252C1.34055 2.34611 0.00187032 3.68479 0 5.33676V20.9334C0.00187032 22.5854 1.34055 23.924 2.99252 23.9259H19.7859C21.4379 23.924 22.7766 22.5854 22.7784 20.9334V15.6191C22.7784 15.2885 22.5105 15.0206 22.1799 15.0206Z" fill="#00D380"/>
<path d="M22.5414 0.804493C21.4896 -0.247331 19.7843 -0.247331 18.7325 0.804493L8.05481 11.4822C7.98163 11.5554 7.92879 11.6461 7.90121 11.7457L6.49706 16.8149C6.43931 17.0228 6.49799 17.2453 6.65043 17.398C6.80309 17.5504 7.02566 17.6091 7.2335 17.5516L12.3028 16.1472C12.4024 16.1196 12.4931 16.0668 12.5663 15.9936L23.2437 5.31572C24.2939 4.26319 24.2939 2.55932 23.2437 1.5068L22.5414 0.804493ZM9.35889 11.8712L18.0977 3.13211L20.9161 5.95046L12.177 14.6895L9.35889 11.8712ZM8.79592 13.0009L11.0476 15.2527L7.933 16.1157L8.79592 13.0009ZM22.3974 4.46939L21.7627 5.10413L18.9441 2.28556L19.579 1.65081C20.1633 1.06657 21.1106 1.06657 21.6949 1.65081L22.3974 2.35312C22.9807 2.93807 22.9807 3.88468 22.3974 4.46939Z" fill="#00D380"/>
</g>
<defs>
<clipPath id="clip0">
<rect width="24" height="24" fill="white"/>
</clipPath>
</defs>
</svg>
