<svg width="20" height="24" viewBox="0 0 20 24" fill="none" xmlns="http://www.w3.org/2000/svg">
<path d="M6.82531 11.4603C6.55077 11.1857 6.10555 11.1857 5.83095 11.4603C5.55636 11.7349 5.55636 12.1801 5.83095 12.4547L8.01847 14.6422C8.15577 14.7795 8.33572 14.8482 8.51563 14.8482C8.69554 14.8482 8.87554 14.7795 9.01279 14.6422L13.3878 10.2672C13.6624 9.99261 13.6624 9.54743 13.3878 9.27284C13.1132 8.99825 12.668 8.99825 12.3934 9.27284L8.51558 13.1506L6.82531 11.4603Z" fill="#BDBDBD"/>
<path d="M18.5114 3.28126C16.4848 3.28126 14.6384 2.16769 13.6929 0.375095C13.5712 0.144375 13.3318 0 13.071 0H6.14781C5.887 0 5.64756 0.144375 5.52587 0.375095C4.5804 2.16769 2.73399 3.28126 0.703126 3.28126C0.314813 3.28126 0 3.59607 0 3.98438V11.1446C0 14.0231 0.899392 16.7718 2.60091 19.0935C4.30252 21.4152 6.65275 23.1006 9.39766 23.9674C9.46657 23.9891 9.53796 24 9.60939 24C9.68083 24 9.75222 23.9891 9.82113 23.9674C12.566 23.1006 14.9163 21.4152 16.6179 19.0935C18.3194 16.7718 19.2188 14.0231 19.2188 11.1446V3.98438C19.2188 3.59607 18.8998 3.28126 18.5114 3.28126ZM17.8125 11.1446C17.8125 16.3484 14.5254 20.9068 9.60939 22.5575C4.69342 20.9068 1.40625 16.3484 1.40625 11.1446V4.65221C3.53429 4.43621 5.43742 3.24198 6.55679 1.40625H12.662C13.7808 3.24104 15.6828 4.43499 17.8125 4.65188V11.1446Z" fill="#BDBDBD"/>
<path d="M12.1218 3.07069C11.9883 2.90728 11.7883 2.8125 11.5773 2.8125H7.64143C7.4304 2.8125 7.23052 2.90728 7.09702 3.07069C6.1028 4.28714 4.78843 5.18949 3.29602 5.68008C3.0075 5.77491 2.8125 6.0443 2.8125 6.34805V11.1446C2.8125 15.4507 5.37418 19.3012 9.33878 20.9544C9.4254 20.9905 9.51742 21.0085 9.60939 21.0085C9.70136 21.0085 9.79342 20.9905 9.88 20.9544C13.8446 19.3012 16.4063 15.4507 16.4063 11.1446V6.34852C16.4063 6.04482 16.2113 5.77543 15.9228 5.68055C14.4304 5.18977 13.116 4.28733 12.1218 3.07069ZM15 11.1446C15 14.7823 12.8939 18.0452 9.60939 19.5386C6.3249 18.0452 4.21875 14.7824 4.21875 11.1446V6.84273C5.66176 6.28191 6.94487 5.38426 7.96726 4.21875H11.2515C12.2739 5.3844 13.5569 6.28219 15 6.8431V11.1446Z" fill="#BDBDBD"/>
</svg>
