<svg width="24" height="24" viewBox="0 0 24 24" fill="none" xmlns="http://www.w3.org/2000/svg">
<path d="M19.9096 13.1024H14.5719C14.2782 12.2382 13.4594 11.6144 12.4971 11.6144C11.5348 11.6144 10.716 12.2382 10.4223 13.1024H6.52139C5.66616 13.1024 4.97039 12.4066 4.97039 11.5514C4.97039 10.6969 5.66559 10.0017 6.52008 10.0017H19.7432C20.1784 10.0017 20.598 9.81877 20.8945 9.49978C22.3112 7.97531 24 5.82811 24 4.25578C24 1.90913 22.0904 0 19.7432 0C17.396 0 15.4863 1.90913 15.4863 4.25578C15.4863 5.53673 16.6072 7.19906 17.7885 8.59552H6.52008C4.89019 8.59552 3.56414 9.92156 3.56414 11.5515C3.56414 13.1821 4.89075 14.5087 6.52139 14.5087H10.4223C10.716 15.3729 11.5348 15.9967 12.4971 15.9967C13.4594 15.9967 14.2782 15.3729 14.5719 14.5087H19.9096C21.3896 14.5087 22.5938 15.7128 22.5938 17.1928C22.5938 18.6728 21.3896 19.8769 19.9096 19.8769H17.5793C17.2855 19.0127 16.4668 18.3889 15.5045 18.3889C14.5422 18.3889 13.7234 19.0127 13.4297 19.8769H6.76842C6.4432 18.3273 5.06588 17.1601 3.4207 17.1601C1.53455 17.1601 0 18.6943 0 20.58C0 22.4658 1.53455 24 3.42075 24C5.06592 24 6.4432 22.8328 6.76847 21.2832H13.4297C13.7234 22.1474 14.5422 22.7712 15.5045 22.7712C16.4668 22.7712 17.2855 22.1474 17.5793 21.2832H19.9096C22.1651 21.2832 24 19.4482 24 17.1928C24 14.9374 22.1651 13.1024 19.9096 13.1024ZM19.7432 1.40625C21.315 1.40625 22.5938 2.68458 22.5938 4.25578C22.5938 5.08838 21.5479 6.73092 19.8644 8.5425C19.8237 8.58633 19.776 8.59552 19.7432 8.59552C19.7104 8.59552 19.6627 8.58633 19.622 8.5425C17.9385 6.73097 16.8926 5.08842 16.8926 4.25583C16.8926 2.68458 18.1714 1.40625 19.7432 1.40625ZM12.4971 14.5905C12.0643 14.5905 11.7122 14.2383 11.7122 13.8055C11.7122 13.3727 12.0643 13.0206 12.4971 13.0206C12.9299 13.0206 13.282 13.3727 13.282 13.8055C13.282 14.2383 12.93 14.5905 12.4971 14.5905ZM3.42075 22.5938C2.30995 22.5938 1.40625 21.6904 1.40625 20.58C1.40625 19.4697 2.30995 18.5663 3.42075 18.5663C4.53155 18.5663 5.43525 19.4697 5.43525 20.58C5.43525 21.6904 4.53155 22.5938 3.42075 22.5938ZM15.5045 21.365C15.0717 21.365 14.7195 21.0128 14.7195 20.58C14.7195 20.1472 15.0717 19.7951 15.5045 19.7951C15.9373 19.7951 16.2894 20.1472 16.2894 20.58C16.2894 21.0128 15.9373 21.365 15.5045 21.365Z" fill="#BDBDBD"/>
<path d="M20.4463 4.29785C20.4293 3.9169 20.1374 3.59473 19.7432 3.59473C19.3754 3.59473 19.0231 3.91812 19.0401 4.29785C19.0571 4.6788 19.349 5.00098 19.7432 5.00098C20.111 5.00098 20.4633 4.67759 20.4463 4.29785Z" fill="#BDBDBD"/>
</svg>
