<svg width="24" height="24" viewBox="0 0 24 24" fill="none" xmlns="http://www.w3.org/2000/svg">
<path d="M23.9953 5.91885C23.9673 5.66071 23.8069 5.43224 23.5671 5.32035L12.3171 0.0703477C12.1161 -0.0234492 11.8838 -0.0234492 11.6828 0.0703477L0.432797 5.32035C0.193078 5.43224 0.0326719 5.66066 0.00459375 5.91885C0.00398437 5.92424 0 5.99605 0 5.99999V18.75C0 19.0566 0.186703 19.3325 0.471469 19.4463L11.7215 23.9463C11.8109 23.9821 11.9055 24 12 24C12.0945 24 12.1891 23.9821 12.2785 23.9463L23.5285 19.4463C23.8133 19.3325 24 19.0566 24 18.75V5.99999C24 5.99605 23.9959 5.92419 23.9953 5.91885ZM12 1.57761L21.363 5.94702L17.7577 7.38918L8.21845 3.34236L12 1.57761ZM6.38953 4.19586L15.7808 8.17991L12 9.69219L2.637 5.94702L6.38953 4.19586ZM1.5 7.10774L11.25 11.0077V22.1422L1.5 18.2422V7.10774ZM12.75 22.1422V11.0077L22.5 7.10774V18.2422L12.75 22.1422Z" fill="#BDBDBD"/>
</svg>
