<svg width="24" height="24" viewBox="0 0 24 24" fill="none" xmlns="http://www.w3.org/2000/svg">
<path d="M23.5 0H0.500017C0.223875 0 0 0.223875 0 0.500017V2.50004C0 2.77613 0.223875 3.00001 0.500017 3.00001H23.5001C23.7762 3.00001 24 2.77613 24 2.49999V0.500017C24 0.223875 23.7762 0 23.5 0ZM23.0001 2.00002H0.999986V0.999986H23V2.00002H23.0001Z" fill="#828282"/>
<path d="M22 4V21.5C22 22.3284 21.3284 23 20.5 23H3.50002C2.6716 23 2.00002 22.3284 2.00002 21.5V4H0.999985V21.5C1.00163 22.8801 2.11997 23.9984 3.49997 24H20.5C21.8801 23.9984 22.9984 22.88 23 21.5V4H22Z" fill="#828282"/>
<path d="M22.5 7.50002H1.5V8.5H22.5V7.50002Z" fill="#828282"/>
<path d="M22.5 12.5H1.5V13.5H22.5V12.5Z" fill="#828282"/>
<path d="M22.5 17.5H1.5V18.5H22.5V17.5Z" fill="#828282"/>
<path d="M13.0001 5.00003H11V6.00002H13.0001V5.00003Z" fill="#828282"/>
<path d="M13.0001 10H11V11H13.0001V10Z" fill="#828282"/>
<path d="M13.0001 15H11V16H13.0001V15Z" fill="#828282"/>
<path d="M13.0001 20.0001H11V21H13.0001V20.0001Z" fill="#828282"/>
</svg>
