<svg width="23" height="20" viewBox="0 0 23 20" fill="none" xmlns="http://www.w3.org/2000/svg">
<path d="M20.0639 13.2314C19.5736 13.2314 19.1761 12.8404 19.1761 12.3581V5.24017C19.1761 3.31389 17.5831 1.74672 15.625 1.74672H7.10227C5.14418 1.74672 3.55114 3.31389 3.55114 5.24017V12.3581C3.55114 12.8404 3.15368 13.2314 2.66335 13.2314C2.17303 13.2314 1.77557 12.8404 1.77557 12.3581V5.24017C1.77557 2.35074 4.16513 0 7.10227 0H15.625C18.5621 0 20.9517 2.35074 20.9517 5.24017V12.3581C20.9517 12.8404 20.5542 13.2314 20.0639 13.2314ZM22.7273 17.3799C22.7273 15.9352 21.5325 14.7598 20.0639 14.7598H2.66335C1.19478 14.7598 0 15.9352 0 17.3799C0 18.8246 1.19478 20 2.66335 20H20.0639C21.5325 20 22.7273 18.8246 22.7273 17.3799ZM20.0639 16.5065C20.5534 16.5065 20.9517 16.8983 20.9517 17.3799C20.9517 17.8615 20.5534 18.2533 20.0639 18.2533H2.66335C2.17383 18.2533 1.77557 17.8615 1.77557 17.3799C1.77557 16.8983 2.17383 16.5065 2.66335 16.5065H20.0639ZM14.3377 5.80786C14.3377 4.29092 13.0832 3.05677 11.5412 3.05677C9.9992 3.05677 8.74467 4.29092 8.74467 5.80786C8.74467 7.3248 9.9992 8.55895 11.5412 8.55895C13.0832 8.55895 14.3377 7.3248 14.3377 5.80786ZM12.5621 5.80786C12.5621 6.36166 12.1042 6.81223 11.5412 6.81223C10.9782 6.81223 10.5202 6.36166 10.5202 5.80786C10.5202 5.25406 10.9782 4.80349 11.5412 4.80349C12.1042 4.80349 12.5621 5.25406 12.5621 5.80786ZM14.4766 13.2032C14.951 13.0814 15.2353 12.6044 15.1116 12.1377C14.7029 10.5962 13.282 9.51965 11.6563 9.51965H11.1597C9.53405 9.51965 8.11319 10.5962 7.7045 12.1376C7.58074 12.6044 7.86501 13.0814 8.33949 13.2031C8.8141 13.3248 9.29878 13.0452 9.42259 12.5785C9.62744 11.8059 10.3418 11.2664 11.1597 11.2664H11.6563C12.4743 11.2664 13.1887 11.8059 13.3935 12.5785C13.4976 12.9714 13.8576 13.2317 14.2519 13.2317C14.326 13.2317 14.4015 13.2224 14.4766 13.2032Z" fill="white"/>
</svg>
